<?xml version="1.0" encoding="UTF-8" standalone="no"?>
<svg
   xmlns:dc="http://purl.org/dc/elements/1.1/"
   xmlns:cc="http://creativecommons.org/ns#"
   xmlns:rdf="http://www.w3.org/1999/02/22-rdf-syntax-ns#"
   xmlns:svg="http://www.w3.org/2000/svg"
   xmlns="http://www.w3.org/2000/svg"
   version="1.1"
   id="svg2"
   viewBox="0 0 630.99501 131.30794"
   height="37.058018mm"
   width="178.08081mm">
  <defs
     id="defs4" />
  <metadata
     id="metadata7">
    <rdf:RDF>
      <cc:Work
         rdf:about="">
        <dc:format>image/svg+xml</dc:format>
        <dc:type
           rdf:resource="http://purl.org/dc/dcmitype/StillImage" />
        <dc:title></dc:title>
      </cc:Work>
    </rdf:RDF>
  </metadata>
  <g
     transform="translate(-42.907062,-23.707366)"
     id="layer1">
    <g
       id="text4136"
       style="font-style:normal;font-weight:normal;font-size:61.6560173px;line-height:125%;font-family:sans-serif;letter-spacing:0px;word-spacing:0px;fill:#000000;fill-opacity:1;fill-rule:nonzero;stroke:#000000;stroke-width:2;stroke-linecap:butt;stroke-linejoin:miter;stroke-miterlimit:4;stroke-dasharray:none;stroke-opacity:1"
       transform="scale(0.76479367,1.3075422)">
      <path
         id="path4171"
         style="font-style:normal;font-variant:normal;font-weight:normal;font-stretch:normal;font-family:'Ubuntu Mono';-inkscape-font-specification:'Ubuntu Mono';letter-spacing:3.42000008px;fill:#ffffff;fill-opacity:1;fill-rule:nonzero;stroke:#000000;stroke-width:2;stroke-linecap:butt;stroke-linejoin:miter;stroke-miterlimit:4;stroke-dasharray:none;stroke-opacity:1"
         d="m 61.846736,32.866346 0,-4.315921 18.065214,0 0,25.895527 q 0,2.712865 -0.616561,5.11745 -0.554904,2.404585 -2.034648,4.192609 -1.418089,1.726369 -3.884329,2.774521 -2.404585,0.986496 -6.103946,0.986496 -3.699361,0 -6.227258,-1.048152 -2.527896,-1.048152 -3.699361,-2.034649 l 2.034649,-4.130953 q 1.171464,0.863184 3.082801,1.849681 1.972992,0.986496 4.562545,0.986496 3.945985,0 5.857322,-2.096305 1.972992,-2.096304 1.972992,-7.090442 l 0,-21.086358 -13.00942,0 z" />
      <path
         id="path4173"
         style="font-style:normal;font-variant:normal;font-weight:normal;font-stretch:normal;font-family:'Ubuntu Mono';-inkscape-font-specification:'Ubuntu Mono';letter-spacing:3.42000008px;fill:#ffffff;fill-opacity:1;fill-rule:nonzero;stroke:#000000;stroke-width:2;stroke-linecap:butt;stroke-linejoin:miter;stroke-miterlimit:4;stroke-dasharray:none;stroke-opacity:1"
         d="m 103.98672,60.508533 q 1.91133,0 3.39108,-0.123312 1.5414,-0.123312 2.52789,-0.30828 l 0,-8.508531 q -0.98649,-0.30828 -2.40458,-0.493248 -1.35643,-0.184968 -2.89783,-0.184968 -1.41809,0 -2.77453,0.246624 -1.35643,0.184968 -2.40458,0.739872 -1.048152,0.554905 -1.726368,1.479745 -0.678217,0.863184 -0.678217,2.219616 0,2.774521 1.849681,3.88433 1.911334,1.048152 5.117454,1.048152 z M 103.49347,34.85963 q 3.20611,0 5.36407,0.801528 2.21962,0.801528 3.57605,2.219617 1.35643,1.418088 1.91134,3.452736 0.5549,2.034649 0.5549,4.439234 l 0,17.880245 q -1.78802,0.30828 -4.74751,0.739872 -2.89784,0.431592 -5.98064,0.431592 -2.34293,0 -4.562542,-0.431592 -2.219616,-0.369936 -3.945985,-1.356432 -1.726368,-1.048153 -2.774521,-2.836177 -1.048152,-1.788025 -1.048152,-4.562546 0,-2.46624 1.048152,-4.130953 1.109809,-1.726368 2.774521,-2.77452 1.726369,-1.048153 3.884329,-1.479745 2.219618,-0.493248 4.439238,-0.493248 3.02114,0 5.91897,0.678216 l 0,-1.418088 q 0,-1.294777 -0.30828,-2.466241 -0.24662,-1.23312 -1.04815,-2.219617 -0.73987,-0.986496 -2.0963,-1.5414 -1.29478,-0.61656 -3.39108,-0.61656 -2.65121,0 -4.624206,0.369936 -1.972993,0.369936 -3.021145,0.739872 l -0.61656,-4.192609 q 1.048152,-0.493248 3.452737,-0.863184 2.466244,-0.369936 5.240764,-0.369936 z" />
      <path
         id="path4175"
         style="font-style:normal;font-variant:normal;font-weight:normal;font-stretch:normal;font-family:'Ubuntu Mono';-inkscape-font-specification:'Ubuntu Mono';letter-spacing:3.42000008px;fill:#ffffff;fill-opacity:1;fill-rule:nonzero;stroke:#000000;stroke-width:2;stroke-linecap:butt;stroke-linejoin:miter;stroke-miterlimit:4;stroke-dasharray:none;stroke-opacity:1"
         d="m 129.153,57.124442 0,-27.066992 q 6.28892,-2.15796 12.70114,-2.15796 1.973,0 3.76102,0.184968 1.78802,0.123312 3.94599,0.61656 l -0.92484,4.500889 q -1.973,-0.554904 -3.5144,-0.678216 -1.47974,-0.184968 -3.26777,-0.184968 -3.76101,0 -7.64534,1.048152 l 0,23.737567 -5.0558,0 z" />
      <path
         id="path4177"
         style="font-style:normal;font-variant:normal;font-weight:normal;font-stretch:normal;font-family:'Ubuntu Mono';-inkscape-font-specification:'Ubuntu Mono';letter-spacing:3.42000008px;fill:#ffffff;fill-opacity:1;fill-rule:nonzero;stroke:#000000;stroke-width:2;stroke-linecap:butt;stroke-linejoin:miter;stroke-miterlimit:4;stroke-dasharray:none;stroke-opacity:1"
         d="m 179.39101,39.475559 q -0.86318,-0.801529 -2.5279,-1.479745 -1.66471,-0.739872 -3.45273,-0.739872 -2.03465,0 -3.5144,0.801528 -1.41808,0.801528 -2.34292,2.219617 -0.92485,1.356432 -1.35644,3.329425 -0.43159,1.911336 -0.43159,4.130953 0,4.994137 2.34293,7.707002 2.34293,2.712865 6.10394,2.712865 1.91134,0 3.20612,-0.184968 1.35643,-0.184968 1.97299,-0.369936 l 0,-18.126869 z m 0,-19.298334 5.11745,-0.863184 0,41.926092 q -1.66471,0.493248 -4.25427,0.986496 -2.58955,0.493248 -6.04229,0.493248 -3.0828,0 -5.61069,-1.048152 -2.5279,-1.048153 -4.31592,-2.959489 -1.78803,-1.972993 -2.77452,-4.747513 -0.9865,-2.774521 -0.9865,-6.227258 0,-3.329425 0.80153,-6.04229 0.86318,-2.774521 2.46624,-4.747513 1.60305,-1.972993 3.82267,-3.082801 2.28127,-1.109808 5.17911,-1.109808 2.28127,0 4.00764,0.554904 1.72637,0.554904 2.58955,1.171464 l 0,-14.304196 z" />
      <path
         id="path4179"
         style="font-style:normal;font-variant:normal;font-weight:normal;font-stretch:normal;font-family:'Ubuntu Mono';-inkscape-font-specification:'Ubuntu Mono';letter-spacing:3.42000008px;fill:#ffffff;fill-opacity:1;fill-rule:nonzero;stroke:#000000;stroke-width:2;stroke-linecap:butt;stroke-linejoin:miter;stroke-miterlimit:4;stroke-dasharray:none;stroke-opacity:1"
         d="m 206.47173,34.289464 q -1.60305,0 -2.77452,-1.109809 -1.17146,-1.109808 -1.17146,-3.021145 0,-1.911336 1.17146,-3.021144 1.17147,-1.109809 2.77452,-1.109809 1.66472,0 2.77453,1.109809 1.17146,1.109808 1.17146,3.021144 0,1.911337 -1.17146,3.021145 -1.10981,1.109809 -2.77453,1.109809 z m -1.29477,8.693498 -8.26191,0 0,-4.254265 13.3177,0 0,17.571965 q 0,4.254265 1.17147,5.734009 1.17146,1.418089 3.51439,1.418089 1.78802,0 3.26777,-0.431592 1.5414,-0.431592 2.40458,-0.924841 l 0.73987,4.315922 q -0.36993,0.184968 -1.04815,0.493248 -0.67821,0.246624 -1.60305,0.493248 -0.86319,0.246624 -1.973,0.431592 -1.04815,0.184968 -2.21961,0.184968 -2.71287,0 -4.50089,-0.739872 -1.78803,-0.739872 -2.89784,-2.219617 -1.04815,-1.479744 -1.47974,-3.637705 -0.43159,-2.219616 -0.43159,-5.117449 l 0,-13.3177 z" />
      <path
         id="path4181"
         style="font-style:normal;font-variant:normal;font-weight:normal;font-stretch:normal;font-family:'Ubuntu Mono';-inkscape-font-specification:'Ubuntu Mono';letter-spacing:3.42000008px;fill:#ffffff;fill-opacity:1;fill-rule:nonzero;stroke:#000000;stroke-width:2;stroke-linecap:butt;stroke-linejoin:miter;stroke-miterlimit:4;stroke-dasharray:none;stroke-opacity:1"
         d="m 230.54696,39.097904 q 2.77452,-0.678216 5.48739,-1.048152 2.77452,-0.369936 5.1791,-0.369936 5.73401,0 8.63184,2.959489 2.95949,2.959488 2.95949,9.495026 l 0,16.770437 -5.05579,0 0,-15.845597 q 0,-2.77452 -0.49325,-4.500889 -0.49325,-1.726368 -1.41809,-2.651209 -0.86318,-0.986496 -2.15796,-1.356432 -1.23312,-0.369936 -2.71286,-0.369936 -1.23312,0 -2.65121,0.184968 -1.35643,0.123312 -2.65121,0.369936 l 0,24.169159 -5.11745,0 0,-27.806864 z" />
      <path
         id="path4183"
         style="font-style:normal;font-variant:normal;font-weight:normal;font-stretch:normal;font-family:'Ubuntu Mono';-inkscape-font-specification:'Ubuntu Mono';letter-spacing:3.42000008px;fill:#ffffff;fill-opacity:1;fill-rule:nonzero;stroke:#000000;stroke-width:2;stroke-linecap:butt;stroke-linejoin:miter;stroke-miterlimit:4;stroke-dasharray:none;stroke-opacity:1"
         d="m 322.31421,32.494485 q -1.973,2.712865 -4.43924,6.473882 -2.40458,3.699361 -4.93248,7.768658 -2.5279,4.069297 -4.93248,8.200251 -2.34293,4.069297 -4.13095,7.460378 l 18.92839,0 0,4.315921 -24.72406,0 0,-3.329425 q 1.91134,-3.884329 4.19261,-7.953626 2.34293,-4.130953 4.74751,-8.076939 2.40459,-3.945985 4.80917,-7.645346 2.40459,-3.699361 4.6242,-6.843818 l -17.44865,0 0,-4.315921 23.30598,0 0,3.945985 z" />
      <path
         id="path4185"
         style="font-style:normal;font-variant:normal;font-weight:normal;font-stretch:normal;font-family:'Ubuntu Mono';-inkscape-font-specification:'Ubuntu Mono';letter-spacing:3.42000008px;fill:#ffffff;fill-opacity:1;fill-rule:nonzero;stroke:#000000;stroke-width:2;stroke-linecap:butt;stroke-linejoin:miter;stroke-miterlimit:4;stroke-dasharray:none;stroke-opacity:1"
         d="m 343.29748,36.157915 q 5.79567,0 8.94012,3.637705 3.14446,3.576049 3.14446,10.913115 l 0,1.788024 -20.4698,0 q 0.30828,4.439233 2.89784,6.782162 2.6512,2.281273 7.39872,2.281273 2.71286,0 4.6242,-0.431592 1.91133,-0.431592 2.89783,-0.924841 l 0.67822,4.315922 q -0.92484,0.493248 -3.32943,1.048152 -2.40458,0.554904 -5.42573,0.554904 -3.69936,0 -6.53553,-1.109808 -2.77453,-1.171465 -4.62421,-3.144457 -1.84968,-1.972993 -2.77452,-4.685857 -0.92484,-2.774521 -0.92484,-5.980634 0,-3.822673 1.17147,-6.65885 1.17146,-2.836177 3.0828,-4.685857 1.91133,-1.849681 4.31592,-2.774521 2.40458,-0.92484 4.93248,-0.92484 z m 6.90547,12.207891 q 0,-3.637705 -1.91133,-5.73401 -1.91134,-2.15796 -5.0558,-2.15796 -1.78802,0 -3.26776,0.678216 -1.41809,0.678216 -2.46625,1.788025 -1.04815,1.109808 -1.66471,2.527896 -0.61656,1.418089 -0.80153,2.897833 l 15.16738,0 z" />
      <path
         id="path4187"
         style="font-style:normal;font-variant:normal;font-weight:normal;font-stretch:normal;font-family:'Ubuntu Mono';-inkscape-font-specification:'Ubuntu Mono';letter-spacing:3.42000008px;fill:#ffffff;fill-opacity:1;fill-rule:nonzero;stroke:#000000;stroke-width:2;stroke-linecap:butt;stroke-linejoin:miter;stroke-miterlimit:4;stroke-dasharray:none;stroke-opacity:1"
         d="m 364.41386,35.585929 q 2.77452,-0.678216 5.48738,-1.048152 2.77452,-0.369936 5.17911,-0.369936 5.73401,0 8.63184,2.959489 2.95949,2.959488 2.95949,9.495026 l 0,16.770437 -5.0558,0 0,-15.845597 q 0,-2.77452 -0.49324,-4.500889 -0.49325,-1.726368 -1.41809,-2.651209 -0.86319,-0.986496 -2.15796,-1.356432 -1.23312,-0.369936 -2.71287,-0.369936 -1.23312,0 -2.65121,0.184968 -1.35643,0.123312 -2.6512,0.369936 l 0,24.169159 -5.11745,0 0,-27.806864 z" />
      <path
         id="path4189"
         style="font-style:normal;font-variant:normal;font-weight:normal;font-stretch:normal;font-family:'Ubuntu Mono';-inkscape-font-specification:'Ubuntu Mono';letter-spacing:3.42000008px;fill:#ffffff;fill-opacity:1;fill-rule:nonzero;stroke:#000000;stroke-width:2;stroke-linecap:butt;stroke-linejoin:miter;stroke-miterlimit:4;stroke-dasharray:none;stroke-opacity:1"
         d="m 462.88444,65.897149 q -2.15796,1.233121 -4.6242,1.788025 -2.40459,0.61656 -5.17911,0.61656 -3.39108,0 -6.28891,-1.171464 -2.83618,-1.233121 -4.93248,-3.637705 -2.09631,-2.466241 -3.32943,-6.227258 -1.17146,-3.761017 -1.17146,-8.878466 0,-4.870826 1.23312,-8.570187 1.29477,-3.699361 3.45273,-6.227258 2.15797,-2.527896 5.0558,-3.822673 2.89783,-1.294776 6.1656,-1.294776 2.28127,0 4.6242,0.61656 2.40459,0.61656 4.68586,2.034649 l -1.47975,4.192609 q -4.06929,-2.342929 -7.64534,-2.342929 -2.5279,0 -4.56255,1.109808 -1.97299,1.048153 -3.39108,3.082801 -1.41809,2.034649 -2.21961,4.870826 -0.73988,2.836177 -0.73988,6.35057 0,3.945985 0.80153,6.843817 0.86319,2.897833 2.34293,4.80917 1.47974,1.911336 3.51439,2.836177 2.09631,0.92484 4.50089,0.92484 1.78803,0 3.76102,-0.431592 1.97299,-0.493248 4.0693,-1.664713 l 1.35643,4.192609 z" />
      <path
         id="path4191"
         style="font-style:normal;font-variant:normal;font-weight:normal;font-stretch:normal;font-family:'Ubuntu Mono';-inkscape-font-specification:'Ubuntu Mono';letter-spacing:3.42000008px;fill:#ffffff;fill-opacity:1;fill-rule:nonzero;stroke:#000000;stroke-width:2;stroke-linecap:butt;stroke-linejoin:miter;stroke-miterlimit:4;stroke-dasharray:none;stroke-opacity:1"
         d="m 484.32338,59.00163 q 3.88432,0 5.91897,-1.479745 2.03465,-1.479744 2.03465,-4.439233 0,-1.788024 -0.73987,-3.021145 -0.73987,-1.294776 -1.97299,-2.219616 -1.23312,-0.986497 -2.77452,-1.664713 -1.5414,-0.739872 -3.14446,-1.356432 -1.84968,-0.739872 -3.57605,-1.664713 -1.66471,-0.92484 -3.02114,-2.15796 -1.29478,-1.233121 -2.09631,-2.897833 -0.73987,-1.664712 -0.73987,-3.945985 0,-4.994138 3.14446,-7.768658 3.14445,-2.836177 8.75515,-2.836177 1.5414,0 3.02114,0.246624 1.5414,0.184968 2.83618,0.493248 1.29478,0.30828 2.28127,0.739872 1.04816,0.431592 1.66472,0.863185 l -1.60306,4.254265 q -1.23312,-0.739872 -3.39108,-1.479745 -2.15796,-0.739872 -4.80917,-0.739872 -2.77452,0 -4.80917,1.418089 -2.03465,1.356432 -2.03465,4.130953 0,1.603056 0.55491,2.712864 0.61656,1.109809 1.60305,1.972993 1.04815,0.801528 2.40459,1.479744 1.35643,0.678217 2.95949,1.356433 2.34292,0.986496 4.25426,1.972992 1.97299,0.986497 3.32943,2.342929 1.41808,1.356432 2.15796,3.206113 0.80152,1.84968 0.80152,4.500889 0,4.994138 -3.39108,7.707002 -3.32942,2.651209 -9.61833,2.651209 -2.03465,0 -3.82268,-0.30828 -1.78802,-0.246624 -3.20611,-0.678216 -1.35643,-0.431592 -2.40459,-0.863184 -1.04815,-0.431593 -1.60305,-0.801529 l 1.5414,-4.192609 q 1.23312,0.678216 3.6377,1.603057 2.40459,0.863184 5.85733,0.863184 z" />
      <path
         id="path4193"
         style="font-style:normal;font-variant:normal;font-weight:normal;font-stretch:normal;font-family:'Ubuntu Mono';-inkscape-font-specification:'Ubuntu Mono';letter-spacing:3.42000008px;fill:#ffffff;fill-opacity:1;fill-rule:nonzero;stroke:#000000;stroke-width:2;stroke-linecap:butt;stroke-linejoin:miter;stroke-miterlimit:4;stroke-dasharray:none;stroke-opacity:1"
         d="m 518.20395,57.594239 q 3.88433,0 5.91898,-1.479745 2.03465,-1.479744 2.03465,-4.439233 0,-1.788024 -0.73987,-3.021145 -0.73988,-1.294776 -1.973,-2.219616 -1.23312,-0.986497 -2.77452,-1.664713 -1.5414,-0.739872 -3.14445,-1.356432 -1.84969,-0.739872 -3.57605,-1.664713 -1.66472,-0.92484 -3.02115,-2.15796 -1.29477,-1.233121 -2.0963,-2.897833 -0.73988,-1.664712 -0.73988,-3.945985 0,-4.994138 3.14446,-7.768658 3.14446,-2.836177 8.75516,-2.836177 1.5414,0 3.02114,0.246624 1.5414,0.184968 2.83618,0.493248 1.29477,0.30828 2.28127,0.739872 1.04815,0.431592 1.66471,0.863185 l -1.60305,4.254265 q -1.23312,-0.739872 -3.39108,-1.479745 -2.15797,-0.739872 -4.80917,-0.739872 -2.77452,0 -4.80917,1.418089 -2.03465,1.356432 -2.03465,4.130953 0,1.603056 0.5549,2.712864 0.61656,1.109809 1.60306,1.972993 1.04815,0.801528 2.40458,1.479744 1.35644,0.678217 2.95949,1.356433 2.34293,0.986496 4.25427,1.972992 1.97299,0.986497 3.32942,2.342929 1.41809,1.356432 2.15796,3.206113 0.80153,1.84968 0.80153,4.500889 0,4.994138 -3.39108,7.707002 -3.32942,2.651209 -9.61834,2.651209 -2.03465,0 -3.82267,-0.30828 -1.78803,-0.246624 -3.20611,-0.678216 -1.35644,-0.431592 -2.40459,-0.863184 -1.04815,-0.431593 -1.60306,-0.801529 l 1.5414,-4.192609 q 1.23313,0.678216 3.63771,1.603057 2.40458,0.863184 5.85732,0.863184 z" />
    </g>
    <g
       id="text4140"
       style="font-style:normal;font-weight:normal;font-size:46.96266174px;line-height:125%;font-family:sans-serif;letter-spacing:0px;word-spacing:0px;fill:#000000;fill-opacity:1;stroke:#000000;stroke-width:2;stroke-linecap:butt;stroke-linejoin:miter;stroke-miterlimit:4;stroke-dasharray:none;stroke-opacity:1"
       transform="scale(0.89813258,1.1134214)">
      <path
         id="path4196"
         style="font-style:normal;font-variant:normal;font-weight:normal;font-stretch:normal;font-family:'Ubuntu Mono';-inkscape-font-specification:'Ubuntu Mono';fill:#ffffff;fill-opacity:1;stroke:#000000;stroke-width:2;stroke-miterlimit:4;stroke-dasharray:none;stroke-opacity:1"
         d="m 69.082805,128.69214 0,3.28738 -17.329222,0 0,-29.06988 3.850938,0 0,25.7825 13.478284,0 z" />
      <path
         id="path4198"
         style="font-style:normal;font-variant:normal;font-weight:normal;font-stretch:normal;font-family:'Ubuntu Mono';-inkscape-font-specification:'Ubuntu Mono';fill:#ffffff;fill-opacity:1;stroke:#000000;stroke-width:2;stroke-miterlimit:4;stroke-dasharray:none;stroke-opacity:1"
         d="m 83.434923,130.03505 q 1.455843,0 2.582946,-0.0939 1.174067,-0.0939 1.92547,-0.23481 l 0,-6.48085 q -0.751403,-0.23481 -1.831544,-0.3757 -1.033179,-0.14089 -2.207245,-0.14089 -1.080142,0 -2.11332,0.18785 -1.033179,0.14089 -1.831544,0.56355 -0.798365,0.42267 -1.314954,1.12711 -0.51659,0.65747 -0.51659,1.69065 0,2.11332 1.40888,2.95865 1.455843,0.79837 3.897901,0.79837 z m -0.375701,-19.53647 q 2.442058,0 4.085751,0.61051 1.690656,0.61052 2.723835,1.69066 1.033178,1.08014 1.455842,2.62991 0.422664,1.54977 0.422664,3.38131 l 0,13.61917 q -1.361917,0.23481 -3.616125,0.56355 -2.207245,0.32874 -4.555378,0.32874 -1.784581,0 -3.475237,-0.32874 -1.690656,-0.28177 -3.00561,-1.03318 -1.314955,-0.79836 -2.11332,-2.16028 -0.798365,-1.36191 -0.798365,-3.47523 0,-1.87851 0.798365,-3.1465 0.845328,-1.31496 2.11332,-2.11332 1.314954,-0.79837 2.958647,-1.12711 1.690656,-0.3757 3.381312,-0.3757 2.301171,0 4.508416,0.51659 l 0,-1.08014 q 0,-0.98622 -0.234814,-1.87851 -0.18785,-0.93925 -0.798365,-1.69065 -0.563552,-0.7514 -1.59673,-1.17407 -0.986216,-0.46963 -2.582947,-0.46963 -2.019394,0 -3.522199,0.28178 -1.502806,0.28178 -2.301171,0.56355 l -0.469627,-3.19346 q 0.798366,-0.3757 2.62991,-0.65748 1.878506,-0.28177 3.991826,-0.28177 z" />
      <path
         id="path4200"
         style="font-style:normal;font-variant:normal;font-weight:normal;font-stretch:normal;font-family:'Ubuntu Mono';-inkscape-font-specification:'Ubuntu Mono';fill:#ffffff;fill-opacity:1;stroke:#000000;stroke-width:2;stroke-miterlimit:4;stroke-dasharray:none;stroke-opacity:1"
         d="m 128.5631,116.7154 q 0.70444,-0.42266 2.0194,-0.84533 1.36191,-0.46962 3.00561,-0.46962 2.20724,0 3.94486,0.84533 1.73762,0.84532 2.91169,2.34813 1.22103,1.5028 1.83154,3.61612 0.65748,2.06636 0.65748,4.60235 0,2.6299 -0.75141,4.74322 -0.7514,2.11332 -2.11331,3.61613 -1.36192,1.45584 -3.28739,2.25421 -1.92547,0.79836 -4.2736,0.79836 -2.58295,0 -4.60234,-0.3757 -2.0194,-0.3757 -3.24043,-0.7514 l 0,-31.27713 3.8979,-0.65748 0,11.55281 z m 0,17.611 q 0.89229,0.23481 1.78458,0.3757 0.89229,0.0939 1.69066,0.0939 3.24042,0 5.07197,-1.97243 1.83154,-2.0194 1.83154,-6.01122 0,-1.69066 -0.32874,-3.1465 -0.32874,-1.50281 -1.03318,-2.53599 -0.70444,-1.08014 -1.83154,-1.69065 -1.08014,-0.61052 -2.62991,-0.61052 -1.36192,0 -2.62991,0.56355 -1.26799,0.51659 -1.92547,1.12711 l 0,13.80702 z" />
      <path
         id="path4202"
         style="font-style:normal;font-variant:normal;font-weight:normal;font-stretch:normal;font-family:'Ubuntu Mono';-inkscape-font-specification:'Ubuntu Mono';fill:#ffffff;fill-opacity:1;stroke:#000000;stroke-width:2;stroke-miterlimit:4;stroke-dasharray:none;stroke-opacity:1"
         d="m 155.14036,112.32564 q 4.41449,0 6.80959,2.7708 2.3951,2.72383 2.3951,8.31239 l 0,1.36191 -15.59161,0 q 0.23481,3.38132 2.20725,5.1659 2.01939,1.73762 5.63552,1.73762 2.06635,0 3.5222,-0.32874 1.45584,-0.32874 2.20724,-0.70444 l 0.51659,3.28738 q -0.70444,0.3757 -2.53598,0.79837 -1.83155,0.42266 -4.13272,0.42266 -2.81776,0 -4.97804,-0.84533 -2.11332,-0.89229 -3.5222,-2.39509 -1.40888,-1.50281 -2.11332,-3.56916 -0.70444,-2.11332 -0.70444,-4.55538 0,-2.91169 0.89229,-5.07197 0.89229,-2.16028 2.34813,-3.56916 1.45585,-1.40888 3.28739,-2.11332 1.83154,-0.70444 3.75701,-0.70444 z m 5.25982,9.29861 q 0,-2.7708 -1.45584,-4.36753 -1.45584,-1.6437 -3.85094,-1.6437 -1.36192,0 -2.48902,0.51659 -1.08014,0.51659 -1.87851,1.36192 -0.79836,0.84533 -1.26799,1.92547 -0.46963,1.08014 -0.61051,2.20725 l 11.55281,0 z" />
      <path
         id="path4204"
         style="font-style:normal;font-variant:normal;font-weight:normal;font-stretch:normal;font-family:'Ubuntu Mono';-inkscape-font-specification:'Ubuntu Mono';fill:#ffffff;fill-opacity:1;stroke:#000000;stroke-width:2;stroke-miterlimit:4;stroke-dasharray:none;stroke-opacity:1"
         d="m 176.90737,129.08565 q 1.45585,0 2.58295,-0.0939 1.17407,-0.0939 1.92547,-0.23481 l 0,-6.48085 q -0.7514,-0.23481 -1.83154,-0.3757 -1.03318,-0.14089 -2.20725,-0.14089 -1.08014,0 -2.11332,0.18785 -1.03318,0.14089 -1.83154,0.56355 -0.79837,0.42267 -1.31496,1.12711 -0.51659,0.65747 -0.51659,1.69065 0,2.11332 1.40888,2.95865 1.45585,0.79837 3.8979,0.79837 z m -0.3757,-19.53647 q 2.44206,0 4.08575,0.61051 1.69066,0.61052 2.72384,1.69066 1.03318,1.08014 1.45584,2.62991 0.42266,1.54977 0.42266,3.38131 l 0,13.61917 q -1.36191,0.23481 -3.61612,0.56355 -2.20725,0.32874 -4.55538,0.32874 -1.78458,0 -3.47524,-0.32874 -1.69065,-0.28177 -3.00561,-1.03318 -1.31495,-0.79836 -2.11332,-2.16028 -0.79836,-1.36191 -0.79836,-3.47523 0,-1.87851 0.79836,-3.1465 0.84533,-1.31496 2.11332,-2.11332 1.31496,-0.79837 2.95865,-1.12711 1.69066,-0.3757 3.38131,-0.3757 2.30117,0 4.50842,0.51659 l 0,-1.08014 q 0,-0.98622 -0.23481,-1.87851 -0.18785,-0.93925 -0.79837,-1.69065 -0.56355,-0.7514 -1.59673,-1.17407 -0.98622,-0.46963 -2.58295,-0.46963 -2.01939,0 -3.5222,0.28178 -1.5028,0.28178 -2.30117,0.56355 l -0.46962,-3.19346 q 0.79836,-0.3757 2.62991,-0.65748 1.8785,-0.28177 3.99182,-0.28177 z" />
      <path
         id="path4206"
         style="font-style:normal;font-variant:normal;font-weight:normal;font-stretch:normal;font-family:'Ubuntu Mono';-inkscape-font-specification:'Ubuntu Mono';fill:#ffffff;fill-opacity:1;stroke:#000000;stroke-width:2;stroke-miterlimit:4;stroke-dasharray:none;stroke-opacity:1"
         d="m 208.51495,129.27476 q -1.26799,0.32874 -3.38131,0.70444 -2.06636,0.3757 -4.88412,0.3757 -2.48902,0 -4.13272,-0.70444 -1.64369,-0.7514 -2.67687,-2.06636 -1.03318,-1.36191 -1.45584,-3.19346 -0.42266,-1.83154 -0.42266,-4.03879 l 0,-12.25725 3.85093,0 0,11.41192 q 0,4.03879 1.17407,5.72945 1.22103,1.69066 4.03879,1.69066 0.61052,0 1.22103,-0.047 0.65748,-0.047 1.22103,-0.0939 0.56355,-0.0939 0.98621,-0.14089 0.42267,-0.0939 0.56356,-0.14089 l 0,-18.40936 3.8979,0 0,21.18016 z" />
      <path
         id="path4208"
         style="font-style:normal;font-variant:normal;font-weight:normal;font-stretch:normal;font-family:'Ubuntu Mono';-inkscape-font-specification:'Ubuntu Mono';fill:#ffffff;fill-opacity:1;stroke:#000000;stroke-width:2;stroke-miterlimit:4;stroke-dasharray:none;stroke-opacity:1"
         d="m 223.26123,107.06695 9.20468,0 0,3.24042 -9.20468,0 0,10.14394 q 0,1.64369 0.23481,2.67687 0.23482,1.03318 0.75141,1.69065 0.56355,0.61052 1.40888,0.84533 0.84532,0.23482 2.06635,0.23482 1.69066,0 2.72384,-0.28178 1.03318,-0.28178 1.97243,-0.7514 l 0.56355,3.28738 q -0.65748,0.28178 -2.11332,0.75141 -1.40888,0.46962 -3.5222,0.46962 -2.44206,0 -3.99182,-0.56355 -1.54977,-0.56355 -2.44206,-1.69066 -0.84533,-1.1271 -1.17407,-2.77079 -0.32874,-1.69066 -0.32874,-3.8979 l 0,-10.14394 -4.60234,0 0,-3.24042 4.60234,0 0,-6.10515 3.85094,-0.65748 0,6.76263 z" />
      <path
         id="path4210"
         style="font-style:normal;font-variant:normal;font-weight:normal;font-stretch:normal;font-family:'Ubuntu Mono';-inkscape-font-specification:'Ubuntu Mono';fill:#ffffff;fill-opacity:1;stroke:#000000;stroke-width:2;stroke-miterlimit:4;stroke-dasharray:none;stroke-opacity:1"
         d="m 247.49396,107.69428 q 4.41449,0 6.80958,2.7708 2.3951,2.72383 2.3951,8.31239 l 0,1.36191 -15.59161,0 q 0.23482,3.38132 2.20725,5.1659 2.01939,1.73762 5.63552,1.73762 2.06636,0 3.5222,-0.32874 1.45584,-0.32874 2.20724,-0.70444 l 0.51659,3.28738 q -0.70444,0.3757 -2.53598,0.79837 -1.83154,0.42266 -4.13271,0.42266 -2.81776,0 -4.97805,-0.84533 -2.11332,-0.89229 -3.5222,-2.39509 -1.40888,-1.50281 -2.11332,-3.56916 -0.70444,-2.11332 -0.70444,-4.55538 0,-2.91169 0.89229,-5.07197 0.8923,-2.16028 2.34814,-3.56916 1.45584,-1.40888 3.28738,-2.11332 1.83155,-0.70444 3.75702,-0.70444 z m 5.25981,9.29861 q 0,-2.7708 -1.45584,-4.36753 -1.45584,-1.6437 -3.85094,-1.6437 -1.36191,0 -2.48902,0.51659 -1.08014,0.51659 -1.8785,1.36192 -0.79837,0.84533 -1.268,1.92547 -0.46962,1.08014 -0.61051,2.20725 l 11.55281,0 z m -0.70443,-17.047449 -5.9173,5.729439 -1.97243,-1.73761 5.35374,-6.480844 2.53599,2.489015 z" />
      <path
         id="path4212"
         style="font-style:normal;font-variant:normal;font-weight:normal;font-stretch:normal;font-family:'Ubuntu Mono';-inkscape-font-specification:'Ubuntu Mono';fill:#ffffff;fill-opacity:1;stroke:#000000;stroke-width:2;stroke-miterlimit:4;stroke-dasharray:none;stroke-opacity:1"
         d="m 300.53766,118.59223 q -0.65748,-0.61052 -1.92547,-1.12711 -1.26799,-0.56355 -2.62991,-0.56355 -1.54977,0 -2.67687,0.61052 -1.08014,0.61051 -1.78458,1.69065 -0.70444,1.03318 -1.03318,2.53599 -0.32874,1.45584 -0.32874,3.1465 0,3.80397 1.78458,5.87033 1.78458,2.06636 4.64931,2.06636 1.45584,0 2.44205,-0.14089 1.03318,-0.14089 1.50281,-0.28178 l 0,-13.80702 z m 0,-14.69931 3.8979,-0.65748 0,31.93461 q -1.26799,0.3757 -3.24042,0.7514 -1.97243,0.3757 -4.60234,0.3757 -2.34814,0 -4.27361,-0.79836 -1.92546,-0.79837 -3.28738,-2.25421 -1.36192,-1.50281 -2.11332,-3.61613 -0.7514,-2.11332 -0.7514,-4.74322 0,-2.53599 0.61051,-4.60235 0.65748,-2.11332 1.87851,-3.61612 1.22103,-1.50281 2.91168,-2.34813 1.73762,-0.84533 3.94487,-0.84533 1.73761,0 3.05257,0.42266 1.31495,0.42267 1.97243,0.89229 l 0,-10.89533 z" />
      <path
         id="path4214"
         style="font-style:normal;font-variant:normal;font-weight:normal;font-stretch:normal;font-family:'Ubuntu Mono';-inkscape-font-specification:'Ubuntu Mono';fill:#ffffff;fill-opacity:1;stroke:#000000;stroke-width:2;stroke-miterlimit:4;stroke-dasharray:none;stroke-opacity:1"
         d="m 320.16587,113.75265 q 4.41449,0 6.80958,2.7708 2.3951,2.72383 2.3951,8.31239 l 0,1.36191 -15.5916,0 q 0.23481,3.38132 2.20724,5.1659 2.01939,1.73762 5.63552,1.73762 2.06636,0 3.5222,-0.32874 1.45584,-0.32874 2.20724,-0.70444 l 0.51659,3.28738 q -0.70444,0.3757 -2.53598,0.79837 -1.83154,0.42266 -4.13271,0.42266 -2.81776,0 -4.97805,-0.84533 -2.11332,-0.89229 -3.5222,-2.39509 -1.40888,-1.50281 -2.11332,-3.56916 -0.70444,-2.11332 -0.70444,-4.55538 0,-2.91169 0.89229,-5.07197 0.8923,-2.16028 2.34814,-3.56916 1.45584,-1.40888 3.28738,-2.11332 1.83155,-0.70444 3.75702,-0.70444 z m 5.25982,9.29861 q 0,-2.7708 -1.45585,-4.36753 -1.45584,-1.6437 -3.85094,-1.6437 -1.36191,0 -2.48902,0.51659 -1.08014,0.51659 -1.8785,1.36192 -0.79837,0.84533 -1.26799,1.92547 -0.46963,1.08014 -0.61052,2.20725 l 11.55282,0 z" />
      <path
         id="path4216"
         style="font-style:normal;font-variant:normal;font-weight:normal;font-stretch:normal;font-family:'Ubuntu Mono';-inkscape-font-specification:'Ubuntu Mono';fill:#ffffff;fill-opacity:1;stroke:#000000;stroke-width:2;stroke-miterlimit:4;stroke-dasharray:none;stroke-opacity:1"
         d="m 368.61065,123.79558 q -2.06635,0 -3.42827,-0.56355 -1.36192,-0.56355 -2.16028,-1.69066 -0.79837,-1.1271 -1.12711,-2.77079 -0.32874,-1.69066 -0.32874,-3.8979 l 0,-20.616606 -6.29299,0 0,-3.287399 10.14393,0 0,23.904005 q 0,1.64369 0.18785,2.67687 0.23482,1.03318 0.65748,1.69065 0.46963,0.61052 1.1271,0.84533 0.65748,0.23482 1.54977,0.23482 1.36192,0 2.53599,-0.32874 1.17406,-0.32874 1.83154,-0.70444 l 0.56355,3.28738 q -0.28177,0.14089 -0.79836,0.3757 -0.51659,0.18785 -1.22103,0.37571 -0.70444,0.18785 -1.54977,0.32873 -0.79837,0.14089 -1.69066,0.14089 z" />
      <path
         id="path4218"
         style="font-style:normal;font-variant:normal;font-weight:normal;font-stretch:normal;font-family:'Ubuntu Mono';-inkscape-font-specification:'Ubuntu Mono';fill:#ffffff;fill-opacity:1;stroke:#000000;stroke-width:2;stroke-miterlimit:4;stroke-dasharray:none;stroke-opacity:1"
         d="m 388.19411,122.50973 q 1.45584,0 2.58294,-0.0939 1.17407,-0.0939 1.92547,-0.23481 l 0,-6.48085 q -0.7514,-0.23481 -1.83154,-0.3757 -1.03318,-0.14089 -2.20725,-0.14089 -1.08014,0 -2.11332,0.18785 -1.03318,0.14089 -1.83154,0.56355 -0.79837,0.42267 -1.31495,1.12711 -0.51659,0.65747 -0.51659,1.69065 0,2.11332 1.40888,2.95865 1.45584,0.79837 3.8979,0.79837 z m -0.3757,-19.53647 q 2.44205,0 4.08575,0.61051 1.69065,0.61052 2.72383,1.69066 1.03318,1.08014 1.45584,2.62991 0.42267,1.54977 0.42267,3.38131 l 0,13.61917 q -1.36192,0.23481 -3.61613,0.56355 -2.20724,0.32874 -4.55538,0.32874 -1.78458,0 -3.47523,-0.32874 -1.69066,-0.28177 -3.00561,-1.03318 -1.31496,-0.79836 -2.11332,-2.16028 -0.79837,-1.36191 -0.79837,-3.47523 0,-1.87851 0.79837,-3.1465 0.84533,-1.31496 2.11332,-2.11332 1.31495,-0.79837 2.95865,-1.12711 1.69065,-0.3757 3.38131,-0.3757 2.30117,0 4.50841,0.51659 l 0,-1.08014 q 0,-0.98622 -0.23481,-1.87851 -0.18785,-0.93925 -0.79837,-1.69065 -0.56355,-0.7514 -1.59673,-1.17407 -0.98621,-0.46963 -2.58294,-0.46963 -2.0194,0 -3.5222,0.28178 -1.50281,0.28178 -2.30117,0.56355 l -0.46963,-3.19346 q 0.79837,-0.3757 2.62991,-0.65748 1.87851,-0.28177 3.99183,-0.28177 z" />
      <path
         id="path4220"
         style="font-style:normal;font-variant:normal;font-weight:normal;font-stretch:normal;font-family:'Ubuntu Mono';-inkscape-font-specification:'Ubuntu Mono';fill:#ffffff;fill-opacity:1;stroke:#000000;stroke-width:2;stroke-miterlimit:4;stroke-dasharray:none;stroke-opacity:1"
         d="m 425.64532,121.3599 q 0,-2.95865 0.93926,-5.11893 0.93925,-2.16028 2.58294,-3.56916 1.6437,-1.40888 3.80398,-2.06636 2.20725,-0.70444 4.69627,-0.70444 1.59673,0 3.14649,0.23481 1.59674,0.18785 3.38132,0.7514 l -0.89229,3.33435 q -1.54977,-0.56355 -2.86473,-0.70444 -1.26799,-0.18785 -2.58294,-0.18785 -1.69066,0 -3.19346,0.46963 -1.50281,0.42266 -2.62991,1.40888 -1.08014,0.93925 -1.73762,2.48902 -0.65748,1.50281 -0.65748,3.66309 0,2.06635 0.61052,3.56916 0.61051,1.45584 1.69065,2.44206 1.12711,0.93925 2.67687,1.40888 1.54977,0.46963 3.42828,0.46963 1.5028,0 2.86472,-0.14089 1.40888,-0.18785 3.05257,-0.75141 l 0.56355,3.24043 q -1.64369,0.61051 -3.33434,0.84533 -1.69066,0.28177 -3.66309,0.28177 -2.62991,0 -4.83716,-0.70444 -2.16028,-0.7514 -3.75701,-2.16028 -1.54977,-1.40888 -2.44206,-3.5222 -0.84533,-2.16028 -0.84533,-4.97804 z" />
      <path
         id="path4222"
         style="font-style:normal;font-variant:normal;font-weight:normal;font-stretch:normal;font-family:'Ubuntu Mono';-inkscape-font-specification:'Ubuntu Mono';fill:#ffffff;fill-opacity:1;stroke:#000000;stroke-width:2;stroke-miterlimit:4;stroke-dasharray:none;stroke-opacity:1"
         d="m 470.76595,123.77327 q 0,2.58294 -0.7514,4.69626 -0.70444,2.06636 -2.01939,3.56916 -1.31496,1.50281 -3.1465,2.34814 -1.83155,0.79836 -3.99183,0.79836 -2.11332,0 -3.94486,-0.79836 -1.78458,-0.84533 -3.09954,-2.34814 -1.31495,-1.5028 -2.06636,-3.56916 -0.70444,-2.11332 -0.70444,-4.69626 0,-2.58295 0.70444,-4.69627 0.75141,-2.11332 2.06636,-3.56916 1.31496,-1.50281 3.09954,-2.30117 1.83154,-0.84533 3.94486,-0.84533 2.16028,0 3.99183,0.84533 1.83154,0.79836 3.1465,2.30117 1.31495,1.45584 2.01939,3.56916 0.7514,2.11332 0.7514,4.69627 z m -3.99182,0 q 0,-3.71006 -1.59673,-5.82337 -1.59674,-2.16029 -4.32057,-2.16029 -2.67687,0 -4.2736,2.16029 -1.54977,2.11331 -1.54977,5.82337 0,3.66308 1.54977,5.82337 1.59673,2.11332 4.2736,2.11332 2.72383,0 4.32057,-2.11332 1.59673,-2.16029 1.59673,-5.82337 z" />
      <path
         id="path4224"
         style="font-style:normal;font-variant:normal;font-weight:normal;font-stretch:normal;font-family:'Ubuntu Mono';-inkscape-font-specification:'Ubuntu Mono';fill:#ffffff;fill-opacity:1;stroke:#000000;stroke-width:2;stroke-miterlimit:4;stroke-dasharray:none;stroke-opacity:1"
         d="m 479.21777,116.47523 q 2.11332,-0.51659 4.17968,-0.79836 2.11332,-0.28178 3.94486,-0.28178 4.36753,0 6.57477,2.25421 2.25421,2.25421 2.25421,7.23225 l 0,12.77384 -3.85094,0 0,-12.0694 q 0,-2.11332 -0.3757,-3.42828 -0.3757,-1.31495 -1.08014,-2.01939 -0.65748,-0.7514 -1.64369,-1.03318 -0.93926,-0.28177 -2.06636,-0.28177 -0.93925,0 -2.01939,0.14088 -1.03318,0.0939 -2.0194,0.28178 l 0,18.40936 -3.8979,0 0,-21.18016 z" />
      <path
         id="path4226"
         style="font-style:normal;font-variant:normal;font-weight:normal;font-stretch:normal;font-family:'Ubuntu Mono';-inkscape-font-specification:'Ubuntu Mono';fill:#ffffff;fill-opacity:1;stroke:#000000;stroke-width:2;stroke-miterlimit:4;stroke-dasharray:none;stroke-opacity:1"
         d="m 500.02401,124.83639 q 0,-2.95865 0.93925,-5.11893 0.93925,-2.16028 2.58294,-3.56916 1.6437,-1.40888 3.80398,-2.06636 2.20725,-0.70444 4.69627,-0.70444 1.59673,0 3.14649,0.23481 1.59674,0.18785 3.38132,0.7514 l -0.89229,3.33435 q -1.54977,-0.56355 -2.86473,-0.70444 -1.26799,-0.18785 -2.58294,-0.18785 -1.69066,0 -3.19346,0.46963 -1.50281,0.42266 -2.62991,1.40888 -1.08014,0.93925 -1.73762,2.48902 -0.65748,1.50281 -0.65748,3.66309 0,2.06635 0.61052,3.56916 0.61051,1.45584 1.69065,2.44206 1.12711,0.93925 2.67687,1.40888 1.54977,0.46963 3.42828,0.46963 1.5028,0 2.86472,-0.14089 1.40888,-0.18785 3.05257,-0.75141 l 0.56356,3.24043 q -1.6437,0.61051 -3.33435,0.84533 -1.69066,0.28177 -3.66309,0.28177 -2.62991,0 -4.83716,-0.70444 -2.16028,-0.7514 -3.75701,-2.16028 -1.54977,-1.40888 -2.44206,-3.5222 -0.84532,-2.16028 -0.84532,-4.97804 z" />
      <path
         id="path4228"
         style="font-style:normal;font-variant:normal;font-weight:normal;font-stretch:normal;font-family:'Ubuntu Mono';-inkscape-font-specification:'Ubuntu Mono';fill:#ffffff;fill-opacity:1;stroke:#000000;stroke-width:2;stroke-miterlimit:4;stroke-dasharray:none;stroke-opacity:1"
         d="m 530.68304,110.11809 q 4.41449,0 6.80958,2.7708 2.3951,2.72383 2.3951,8.31239 l 0,1.36191 -15.5916,0 q 0.23481,3.38132 2.20724,5.1659 2.01939,1.73762 5.63552,1.73762 2.06636,0 3.5222,-0.32874 1.45584,-0.32874 2.20724,-0.70444 l 0.51659,3.28738 q -0.70444,0.3757 -2.53598,0.79837 -1.83154,0.42266 -4.13271,0.42266 -2.81776,0 -4.97805,-0.84533 -2.11332,-0.89229 -3.5222,-2.39509 -1.40888,-1.50281 -2.11332,-3.56916 -0.70444,-2.11332 -0.70444,-4.55538 0,-2.91169 0.89229,-5.07197 0.8923,-2.16028 2.34814,-3.56916 1.45584,-1.40888 3.28738,-2.11332 1.83155,-0.70444 3.75702,-0.70444 z m 5.25982,9.29861 q 0,-2.7708 -1.45585,-4.36753 -1.45584,-1.6437 -3.85094,-1.6437 -1.36191,0 -2.48902,0.51659 -1.08014,0.51659 -1.8785,1.36192 -0.79837,0.84533 -1.26799,1.92547 -0.46963,1.08014 -0.61052,2.20725 l 11.55282,0 z" />
      <path
         id="path4230"
         style="font-style:normal;font-variant:normal;font-weight:normal;font-stretch:normal;font-family:'Ubuntu Mono';-inkscape-font-specification:'Ubuntu Mono';fill:#ffffff;fill-opacity:1;stroke:#000000;stroke-width:2;stroke-miterlimit:4;stroke-dasharray:none;stroke-opacity:1"
         d="m 558.63194,116.40304 q 0,-3.80398 -1.78458,-5.87033 -1.78458,-2.11332 -4.64931,-2.11332 -1.59673,0 -2.53598,0.14088 -0.89229,0.14089 -1.40888,0.32874 l 0,13.76006 q 0.65748,0.61052 1.92547,1.12711 1.26799,0.51659 2.62991,0.51659 1.54977,0 2.62991,-0.61052 1.1271,-0.61051 1.83154,-1.64369 0.70444,-1.08014 1.03318,-2.48902 0.32874,-1.45585 0.32874,-3.1465 z m 3.99183,0 q 0,2.48902 -0.65748,4.60234 -0.61052,2.06636 -1.83155,3.56916 -1.17406,1.50281 -2.91168,2.34813 -1.73762,0.84533 -3.94486,0.84533 -1.73762,0 -3.05258,-0.42266 -1.31495,-0.42267 -1.97243,-0.93926 l 0,8.59417 -3.8979,0 0,-28.88204 q 1.26799,-0.3757 3.24042,-0.7514 2.0194,-0.3757 4.60234,-0.3757 2.34814,0 4.27361,0.79837 1.92547,0.79836 3.28738,2.30117 1.36192,1.45584 2.11332,3.56916 0.75141,2.11332 0.75141,4.74323 z" />
      <path
         id="path4232"
         style="font-style:normal;font-variant:normal;font-weight:normal;font-stretch:normal;font-family:'Ubuntu Mono';-inkscape-font-specification:'Ubuntu Mono';fill:#ffffff;fill-opacity:1;stroke:#000000;stroke-width:2;stroke-miterlimit:4;stroke-dasharray:none;stroke-opacity:1"
         d="m 575.78189,101.29019 9.20468,0 0,3.24042 -9.20468,0 0,10.14394 q 0,1.64369 0.23482,2.67687 0.23481,1.03318 0.7514,1.69065 0.56355,0.61052 1.40888,0.84533 0.84533,0.23482 2.06635,0.23482 1.69066,0 2.72384,-0.28178 1.03318,-0.28178 1.97243,-0.7514 l 0.56355,3.28738 q -0.65747,0.28178 -2.11332,0.75141 -1.40888,0.46962 -3.5222,0.46962 -2.44206,0 -3.99182,-0.56355 -1.54977,-0.56355 -2.44206,-1.69066 -0.84533,-1.1271 -1.17407,-2.77079 -0.32874,-1.69066 -0.32874,-3.8979 l 0,-10.14394 -4.60234,0 0,-3.24042 4.60234,0 0,-6.105139 3.85094,-0.65748 0,6.762619 z" />
      <path
         id="path4234"
         style="font-style:normal;font-variant:normal;font-weight:normal;font-stretch:normal;font-family:'Ubuntu Mono';-inkscape-font-specification:'Ubuntu Mono';fill:#ffffff;fill-opacity:1;stroke:#000000;stroke-width:2;stroke-miterlimit:4;stroke-dasharray:none;stroke-opacity:1"
         d="m 597.77047,100.45084 q -1.22102,0 -2.11332,-0.845327 -0.89229,-0.84533 -0.89229,-2.301174 0,-1.455838 0.89229,-2.301163 0.8923,-0.845333 2.11332,-0.845333 1.268,0 2.11332,0.845333 0.89229,0.845325 0.89229,2.301163 0,1.455844 -0.89229,2.301174 -0.84532,0.845327 -2.11332,0.845327 z m -0.98621,6.62173 -6.293,0 0,-3.24042 10.14394,0 0,13.38436 q 0,3.24042 0.89229,4.36752 0.89229,1.08015 2.67687,1.08015 1.36192,0 2.48902,-0.32874 1.17407,-0.32874 1.83154,-0.70444 l 0.56356,3.28738 q -0.28178,0.14089 -0.79837,0.3757 -0.51659,0.18785 -1.22103,0.37571 -0.65748,0.18785 -1.5028,0.32873 -0.79837,0.14089 -1.69066,0.14089 -2.06636,0 -3.42827,-0.56355 -1.36192,-0.56355 -2.20725,-1.69066 -0.79836,-1.1271 -1.1271,-2.77079 -0.32874,-1.69066 -0.32874,-3.8979 l 0,-10.14394 z" />
      <path
         id="path4236"
         style="font-style:normal;font-variant:normal;font-weight:normal;font-stretch:normal;font-family:'Ubuntu Mono';-inkscape-font-specification:'Ubuntu Mono';fill:#ffffff;fill-opacity:1;stroke:#000000;stroke-width:2;stroke-miterlimit:4;stroke-dasharray:none;stroke-opacity:1"
         d="m 633.43009,119.02124 q 0,2.58294 -0.75141,4.69626 -0.70444,2.06636 -2.01939,3.56916 -1.31496,1.50281 -3.1465,2.34814 -1.83154,0.79836 -3.99183,0.79836 -2.11332,0 -3.94486,-0.79836 -1.78458,-0.84533 -3.09954,-2.34814 -1.31495,-1.5028 -2.06635,-3.56916 -0.70444,-2.11332 -0.70444,-4.69626 0,-2.58295 0.70444,-4.69627 0.7514,-2.11332 2.06635,-3.56916 1.31496,-1.50281 3.09954,-2.30117 1.83154,-0.84533 3.94486,-0.84533 2.16029,0 3.99183,0.84533 1.83154,0.79836 3.1465,2.30117 1.31495,1.45584 2.01939,3.56916 0.75141,2.11332 0.75141,4.69627 z m -3.99183,0 q 0,-3.71006 -1.59673,-5.82337 -1.59673,-2.16029 -4.32057,-2.16029 -2.67687,0 -4.2736,2.16029 -1.54977,2.11331 -1.54977,5.82337 0,3.66308 1.54977,5.82337 1.59673,2.11332 4.2736,2.11332 2.72384,0 4.32057,-2.11332 1.59673,-2.16029 1.59673,-5.82337 z" />
      <path
         id="path4238"
         style="font-style:normal;font-variant:normal;font-weight:normal;font-stretch:normal;font-family:'Ubuntu Mono';-inkscape-font-specification:'Ubuntu Mono';fill:#ffffff;fill-opacity:1;stroke:#000000;stroke-width:2;stroke-miterlimit:4;stroke-dasharray:none;stroke-opacity:1"
         d="m 638.1921,110.51716 q 2.11332,-0.51659 4.17968,-0.79836 2.11332,-0.28178 3.94486,-0.28178 4.36753,0 6.57478,2.25421 2.2542,2.25421 2.2542,7.23225 l 0,12.77384 -3.85093,0 0,-12.0694 q 0,-2.11332 -0.37571,-3.42828 -0.3757,-1.31495 -1.08014,-2.01939 -0.65747,-0.7514 -1.64369,-1.03318 -0.93925,-0.28177 -2.06636,-0.28177 -0.93925,0 -2.01939,0.14088 -1.03318,0.0939 -2.0194,0.28178 l 0,18.40936 -3.8979,0 0,-21.18016 z" />
      <path
         id="path4240"
         style="font-style:normal;font-variant:normal;font-weight:normal;font-stretch:normal;font-family:'Ubuntu Mono';-inkscape-font-specification:'Ubuntu Mono';fill:#ffffff;fill-opacity:1;stroke:#000000;stroke-width:2;stroke-miterlimit:4;stroke-dasharray:none;stroke-opacity:1"
         d="m 703.07872,130.75849 q -1.6437,0.93926 -3.5222,1.36192 -1.83155,0.46963 -3.94487,0.46963 -2.58294,0 -4.79019,-0.89229 -2.16028,-0.93926 -3.75701,-2.7708 -1.59673,-1.87851 -2.53599,-4.74323 -0.89229,-2.86472 -0.89229,-6.76262 0,-3.71005 0.93926,-6.52781 0.98621,-2.81776 2.62991,-4.74323 1.64369,-1.92547 3.85093,-2.91169 2.20725,-0.98621 4.69627,-0.98621 1.73762,0 3.5222,0.46962 1.83154,0.46963 3.56916,1.54977 l -1.1271,3.19346 q -3.09954,-1.78458 -5.82337,-1.78458 -1.92547,0 -3.47524,0.84533 -1.5028,0.79837 -2.58295,2.34813 -1.08014,1.54977 -1.69065,3.71005 -0.56355,2.16029 -0.56355,4.83716 0,3.00561 0.61051,5.21285 0.65748,2.20725 1.78458,3.66309 1.12711,1.45584 2.67687,2.16028 1.59674,0.70444 3.42828,0.70444 1.36192,0 2.86472,-0.32874 1.50281,-0.3757 3.09954,-1.26799 l 1.03318,3.19346 z" />
      <path
         id="path4242"
         style="font-style:normal;font-variant:normal;font-weight:normal;font-stretch:normal;font-family:'Ubuntu Mono';-inkscape-font-specification:'Ubuntu Mono';fill:#ffffff;fill-opacity:1;stroke:#000000;stroke-width:2;stroke-miterlimit:4;stroke-dasharray:none;stroke-opacity:1"
         d="m 715.94654,129.25569 q 2.95865,0 4.50841,-1.12711 1.54977,-1.1271 1.54977,-3.38131 0,-1.36191 -0.56355,-2.30117 -0.56355,-0.98621 -1.50281,-1.69065 -0.93925,-0.75141 -2.11332,-1.268 -1.17406,-0.56355 -2.39509,-1.03317 -1.40888,-0.56356 -2.72384,-1.268 -1.26799,-0.70444 -2.30117,-1.64369 -0.98621,-0.93925 -1.59673,-2.20724 -0.56355,-1.268 -0.56355,-3.00561 0,-3.80398 2.3951,-5.9173 2.39509,-2.16028 6.6687,-2.16028 1.17406,0 2.30117,0.18785 1.17406,0.14089 2.16028,0.3757 0.98621,0.23481 1.73762,0.56355 0.79836,0.32874 1.26799,0.65748 l -1.22103,3.24042 q -0.93925,-0.56355 -2.58295,-1.1271 -1.64369,-0.56355 -3.66308,-0.56355 -2.11332,0 -3.66309,1.08014 -1.54977,1.03318 -1.54977,3.1465 0,1.22103 0.42266,2.06635 0.46963,0.84533 1.22103,1.50281 0.79837,0.61051 1.83155,1.1271 1.03318,0.51659 2.2542,1.03318 1.78459,0.7514 3.24043,1.50281 1.5028,0.7514 2.53598,1.78458 1.08014,1.03318 1.6437,2.44206 0.61051,1.40888 0.61051,3.42827 0,3.80398 -2.58295,5.87033 -2.53598,2.0194 -7.32617,2.0194 -1.54977,0 -2.91169,-0.23482 -1.36191,-0.18785 -2.44206,-0.51659 -1.03317,-0.32873 -1.83154,-0.65747 -0.79836,-0.32874 -1.22103,-0.61052 l 1.17407,-3.19346 q 0.93925,0.51659 2.7708,1.22103 1.83154,0.65748 4.46145,0.65748 z" />
      <path
         id="path4244"
         style="font-style:normal;font-variant:normal;font-weight:normal;font-stretch:normal;font-family:'Ubuntu Mono';-inkscape-font-specification:'Ubuntu Mono';fill:#ffffff;fill-opacity:1;stroke:#000000;stroke-width:2;stroke-miterlimit:4;stroke-dasharray:none;stroke-opacity:1"
         d="m 739.42786,129.25569 q 2.95865,0 4.50842,-1.12711 1.54976,-1.1271 1.54976,-3.38131 0,-1.36191 -0.56355,-2.30117 -0.56355,-0.98621 -1.5028,-1.69065 -0.93926,-0.75141 -2.11332,-1.268 -1.17407,-0.56355 -2.3951,-1.03317 -1.40888,-0.56356 -2.72383,-1.268 -1.26799,-0.70444 -2.30117,-1.64369 -0.98622,-0.93925 -1.59673,-2.20724 -0.56356,-1.268 -0.56356,-3.00561 0,-3.80398 2.3951,-5.9173 2.3951,-2.16028 6.6687,-2.16028 1.17407,0 2.30117,0.18785 1.17407,0.14089 2.16028,0.3757 0.98622,0.23481 1.73762,0.56355 0.79837,0.32874 1.26799,0.65748 l -1.22103,3.24042 q -0.93925,-0.56355 -2.58294,-1.1271 -1.6437,-0.56355 -3.66309,-0.56355 -2.11332,0 -3.66309,1.08014 -1.54977,1.03318 -1.54977,3.1465 0,1.22103 0.42267,2.06635 0.46962,0.84533 1.22103,1.50281 0.79836,0.61051 1.83154,1.1271 1.03318,0.51659 2.25421,1.03318 1.78458,0.7514 3.24042,1.50281 1.50281,0.7514 2.53599,1.78458 1.08014,1.03318 1.64369,2.44206 0.61051,1.40888 0.61051,3.42827 0,3.80398 -2.58294,5.87033 -2.53599,2.0194 -7.32618,2.0194 -1.54977,0 -2.91168,-0.23482 -1.36192,-0.18785 -2.44206,-0.51659 -1.03318,-0.32873 -1.83155,-0.65747 -0.79836,-0.32874 -1.22102,-0.61052 l 1.17406,-3.19346 q 0.93925,0.51659 2.7708,1.22103 1.83154,0.65748 4.46145,0.65748 z" />
    </g>
  </g>
</svg>
